<?xml version="1.0" standalone="no"?>
<!DOCTYPE svg PUBLIC "-//W3C//DTD SVG 20010904//EN" "http://www.w3.org/TR/2001/REC-SVG-20010904/DTD/svg10.dtd">
<!-- Created using Krita: https://krita.org -->
<svg xmlns="http://www.w3.org/2000/svg" 
    xmlns:xlink="http://www.w3.org/1999/xlink"
    xmlns:krita="http://krita.org/namespaces/svg/krita"
    xmlns:sodipodi="http://sodipodi.sourceforge.net/DTD/sodipodi-0.dtd"
    width="410.64pt"
    height="368.64pt"
    viewBox="0 0 410.64 368.64">
<defs/>
<path id="shape0" transform="translate(5.76999152486922, 0)" fill="#ffffff" fill-rule="evenodd" stroke="#ffffff" stroke-width="0.24" stroke-linecap="square" stroke-linejoin="bevel" d="M0 140.007L198.895 0L399.487 139.837L218.87 221.76Z" sodipodi:nodetypes="ccccc"/><path id="shape1" transform="translate(0.719999998615606, 141.730820751772)" fill="#ffffff" fill-rule="evenodd" stroke="#ffffff" stroke-width="0.24" stroke-linecap="square" stroke-linejoin="bevel" d="M2.165 0C136.633 0.0663937 253.756 60.3307 405.57 0.199181C406.96 2.52689 408.33 3.69689 409.68 3.70918L409.68 226.189L0 226.189C0 122.365 0 48.2052 0 3.70918" sodipodi:nodetypes="cccccc"/><path id="shape2" transform="matrix(0.719999978604271 0 0 0.719999978604271 6.09778282978368e-06 139.445866256186)" fill="#3f3d56" stroke="#ffffff" stroke-width="0" stroke-linecap="square" stroke-linejoin="bevel" d="M563 0L562.8 0L448 49.02L290.93 116.09C289.691 116.611 288.295 116.619 287.05 116.11L125 48.88L7.37988 0.08L7.2002 0L7 0C3.13578 0.00428766 0.00428766 3.13578 0 7L0 311C0.00429316 314.864 3.13579 317.996 7 318L563 318C566.864 317.996 569.996 314.864 570 311L570 7C569.996 3.13578 566.864 0.00428766 563 0ZM568 311C567.999 313.761 565.761 315.999 563 316L7 316C4.23903 315.999 2.0011 313.761 2 311L2 7C2.00377 4.31338 4.1256 2.10776 6.81006 2L125 51.04L286.28 117.96C288.026 118.67 289.982 118.66 291.72 117.93L448 51.19L563.2 2C565.879 2.11569 567.994 4.31826 568 7Z" sodipodi:nodetypes="ccccccccccccccccccccccccccccc"/><path id="shape3" transform="matrix(0.719999978604271 0 0 0.719999978604271 4.31980730558519 7.18638071361966e-06)" fill="#3f3d56" stroke-opacity="0" stroke="#000000" stroke-width="0" stroke-linecap="square" stroke-linejoin="bevel" d="M559 195.675C558.795 195.675 558.596 195.612 558.429 195.496L281.87 2.89209C280.146 1.69727 277.861 1.70117 276.141 2.90186L1.57462 195.494C1.12238 195.811 0.498625 195.701 0.181426 195.249C-0.135773 194.797 -0.0263024 194.173 0.425936 193.856L274.993 1.26416C277.401 -0.416549 280.6 -0.421806 283.013 1.25098L559.572 193.854C559.93 194.104 560.085 194.558 559.954 194.974C559.823 195.391 559.437 195.675 559 195.675Z" sodipodi:nodetypes="ccccccccccccc"/><path id="shape4" transform="matrix(0.719999978604271 0 0 0.719999978604271 27.9072582013154 320.001358874582)" fill="#6c63ff" stroke-opacity="0" stroke="#000000" stroke-width="0" stroke-linecap="square" stroke-linejoin="bevel" d="M135.495 12.0947L6.05515 12.0947C3.89278 12.0975 1.89348 10.9455 0.811491 9.0733C-0.270497 7.2011 -0.270497 4.89364 0.811491 3.02144C1.89348 1.14924 3.89278 -0.00277563 6.05515 5.02245e-06L135.495 5.02245e-06C137.658 -0.00277563 139.657 1.14924 140.739 3.02144C141.821 4.89364 141.821 7.2011 140.739 9.0733C139.657 10.9455 137.658 12.0975 135.495 12.0947Z" sodipodi:nodetypes="ccccccccc"/><path id="shape5" transform="matrix(0.719999978604271 0 0 0.719999978604271 27.9072582013394 301.281359430871)" fill="#6c63ff" stroke-opacity="0" stroke="#000000" stroke-width="0" stroke-linecap="square" stroke-linejoin="bevel" d="M52.4955 12.0947L6.05515 12.0947C3.89278 12.0975 1.89348 10.9455 0.811491 9.0733C-0.270497 7.2011 -0.270497 4.89364 0.811491 3.02144C1.89348 1.14924 3.89278 -0.00277563 6.05515 5.02245e-06L52.4955 5.02245e-06C54.6578 -0.00277563 56.6571 1.14924 57.7391 3.02144C58.8211 4.89364 58.8211 7.2011 57.7391 9.0733C56.6571 10.9455 54.6578 12.0975 52.4955 12.0947Z" sodipodi:nodetypes="ccccccccc"/><path id="shape6" transform="matrix(0.719999978604271 0 0 0.719999978604271 89.2801474447081 18.4857258506728)" fill="#3f3d56" stroke-opacity="0" stroke="#000000" stroke-width="0" stroke-linecap="square" stroke-linejoin="bevel" d="M164.96 285.484C163.911 285.486 162.872 285.282 161.9 284.886L0 217.708L0 7.5C0.00468976 3.35981 3.35981 0.00468976 7.5 0L317.5 2.84217e-14C321.64 0.00468976 324.995 3.35981 325 7.5L325 217.851L168.112 284.85C167.114 285.269 166.043 285.485 164.96 285.484ZM1.99996 216.372L162.663 283.037C164.162 283.645 165.84 283.635 167.331 283.009L323 216.53L323 7.5C322.996 4.46393 320.536 2.0036 317.5 2L7.50005 2C4.46398 2.0036 2.00365 4.46393 2.00005 7.5Z" sodipodi:nodetypes="ccccccccccccccccccc"/><path id="shape7" transform="matrix(0.719999978604271 0 0 0.719999978604271 16.7500856000326 6.70967982062456)" fill="#e6e6e6" stroke-opacity="0" stroke="#000000" stroke-width="0" stroke-linecap="square" stroke-linejoin="bevel" d="M0 194.183L262.012 0L526.012 208L275.512 356.5L139.512 325.5L0 194.183Z" sodipodi:nodetypes="ccccccc"/><path id="shape8" transform="matrix(0.719999978604271 0 0 0.719999978604271 88.9201474591169 18.8457402399745)" fill="#ffffff" stroke-opacity="0" stroke="#000000" stroke-width="0" stroke-linecap="square" stroke-linejoin="bevel" d="M164.46 284.485C163.476 284.486 162.502 284.295 161.591 283.923L0 216.874L0 7C0.00450211 3.13587 3.13587 0.00450211 7 0L317 0C320.864 0.00450761 323.995 3.13588 324 7L324 217.02L323.696 217.15L167.416 283.89C166.48 284.283 165.475 284.486 164.46 284.485Z" sodipodi:nodetypes="ccccccccccc"/><path id="shape9" transform="matrix(0.719999978604271 0 0 0.719999978604271 142.088004791047 35.6349168690499)" fill="#6c63ff" stroke-opacity="0" stroke="#000000" stroke-width="0" stroke-linecap="square" stroke-linejoin="bevel" d="M90.0006 201.654C84.0351 201.665 78.2278 199.736 73.4547 196.158L73.1588 195.936L10.8478 148.228C-1.28849 138.929 -3.58866 121.553 5.71018 109.417C15.009 97.2804 32.3856 94.9802 44.5218 104.279L84.8822 135.227L180.26 10.8401C189.563 -1.29315 206.941 -3.58709 219.073 5.71655L218.48 6.52172L219.089 5.72826C231.206 15.0408 233.498 32.4041 224.212 44.5417L112.025 190.85C106.766 197.684 98.6236 201.678 90.0006 201.654Z" sodipodi:nodetypes="cccccccccccccc"/>
</svg>
